<?xml version="1.0" encoding="UTF-8"?><svg id="Calque_2" xmlns="http://www.w3.org/2000/svg" xmlns:xlink="http://www.w3.org/1999/xlink" viewBox="0 0 477.53 441.25"><defs><style>.cls-1{fill:url(#Dégradé_sans_nom_54-2);}.cls-1,.cls-2,.cls-3{stroke-width:0px;}.cls-2{fill:url(#Dégradé_sans_nom_54);}.cls-3{fill:#fff;}</style><linearGradient id="Dégradé_sans_nom_54" x1="15.01" y1="142.36" x2="462.53" y2="142.36" gradientUnits="userSpaceOnUse"><stop offset="0" stop-color="#29abe2"/><stop offset=".2" stop-color="#24a1e3"/><stop offset=".53" stop-color="#1788e8"/><stop offset=".96" stop-color="#025ff0"/><stop offset=".99" stop-color="#005bf1"/></linearGradient><linearGradient id="Dégradé_sans_nom_54-2" x1="105.69" y1="293.09" x2="371.84" y2="293.09" xlink:href="#Dégradé_sans_nom_54"/></defs><g id="Calque_1-2"><path class="cls-3" d="M51.13,94.69c-5.42,8.27-10.31,16.93-14.61,25.91-11.92,24.9-19.37,52.33-21.34,81.27,2.7-44.24,17.42-79.62,35.95-107.18Z"/><path class="cls-3" d="M138.11,16.96c-.6.31-1.21.62-1.8.94.65-.35,1.25-.66,1.8-.94Z"/><path class="cls-3" d="M141.48,15.3c-1.13.55-2.25,1.11-3.37,1.66,1.57-.81,2.71-1.36,3.37-1.66Z"/><path class="cls-3" d="M339.43,16.96c-1.12-.55-2.24-1.11-3.37-1.66.66.3,1.8.85,3.37,1.66Z"/><path class="cls-3" d="M341.23,17.9c-.59-.32-1.2-.63-1.8-.94.55.28,1.15.59,1.8.94Z"/><path class="cls-3" d="M462.36,201.87c-1.97-28.94-9.42-56.37-21.34-81.27-4.22-8.81-9-17.32-14.31-25.45,18.38,27.49,32.96,62.72,35.65,106.72Z"/><path class="cls-3" d="M15.01,204.68l65.37,65.37.32-.32L15.01,204.68ZM85.39,53.85l-10.02,10.02c-8.95,9.53-17.07,19.84-24.24,30.82C80.83,50.51,120.28,26.45,135.63,18.25c-18.39,9.53-35.28,21.55-50.24,35.6ZM402.17,63.87l-10.02-10.02c-14.96-14.05-31.85-26.07-50.24-35.6,15.4,8.23,55.07,32.43,84.8,76.9-7.24-11.15-15.47-21.62-24.54-31.28ZM396.84,269.72l.33.33,52.79-52.8,12.57-12.57-65.69,65.04Z"/><path class="cls-3" d="M453.21,110.79c-11.56-22.84-27.12-43.95-46.25-62.74C374.46,16.12,342.83,1.88,341.5,1.29c-1.95-.87-4.03-1.29-6.08-1.29-3.9,0-7.74,1.52-10.61,4.39l-86.04,86.04L152.72,4.39c-2.87-2.87-6.71-4.39-10.61-4.39-2.05,0-4.12.42-6.08,1.29-1.33.59-32.96,14.83-65.46,46.76-19.13,18.79-34.69,39.9-46.25,62.74C9.84,139.41,1.66,170.75.02,203.94c-.21,4.25,1.4,8.4,4.43,11.39l223.76,221.57c2.93,2.9,6.74,4.35,10.56,4.35s7.63-1.45,10.55-4.35l223.76-221.57c3.03-2.99,4.64-7.14,4.43-11.39-1.64-33.19-9.81-64.53-24.3-93.15ZM367.2,252.06c-.26.98-.54,1.95-.83,2.92-6.06,20.45-17.46,38.92-32.54,54.01l-1.59,1.59-10.84,10.83-28,28-7.89,7.91-46.74,46.73-46.73-46.73-35.91-35.91-10.83-10.83-1.57-1.57c-15.09-15.09-26.51-33.57-32.57-54.03-.29-.97-.56-1.94-.83-2.92-3.03-11.14-4.64-22.86-4.64-34.96s1.61-23.82,4.64-34.96l34.96,34.96,93.48,93.48,93.47-93.48,34.96-34.96c3.03,11.14,4.64,22.86,4.64,34.96s-1.61,23.82-4.64,34.96ZM449.96,217.25l-52.79,52.8-.33-.33-3.85-3.85c4.84-15.34,7.45-31.68,7.45-48.62s-2.61-33.28-7.45-48.62c-1.39-4.45-2.98-8.82-4.75-13.1-8.19-19.82-20.22-37.67-35.15-52.6l-8.02,8.02-.7.71-52.8,52.79-52.8,52.8-114.32-114.32c-14.93,14.93-26.96,32.78-35.15,52.6-1.77,4.28-3.36,8.65-4.75,13.1-4.84,15.34-7.45,31.68-7.45,48.62s2.61,33.28,7.45,48.62l-3.85,3.86-.32.32L15.01,204.68c.05-.94.11-1.87.17-2.81,2.7-44.24,17.42-79.62,35.95-107.18,7.17-10.98,15.29-21.29,24.24-30.82l10.02-10.02c14.96-14.05,31.85-26.07,50.24-35.6.22-.13.45-.25.68-.35.65-.35,1.25-.66,1.8-.94,1.57-.81,2.71-1.36,3.37-1.66.08-.04.17-.08.25-.12.07-.03.14-.06.21-.1.03,0,.06-.03.09-.04.03-.01.06-.03.09-.04l43.86,43.86,52.79,52.79,48.62-48.62,4.18-4.17,43.85-43.86s.06.03.09.04c.03.01.06.03.09.04.07.04.14.07.21.1.08.04.17.08.25.12.66.3,1.8.85,3.37,1.66.55.28,1.15.59,1.8.94.23.1.46.22.68.35,18.39,9.53,35.28,21.55,50.24,35.6l10.02,10.02c9.07,9.66,17.3,20.13,24.54,31.28,18.38,27.49,32.96,62.72,35.65,106.72.06.94.12,1.87.17,2.81l-12.57,12.57Z"/><path class="cls-2" d="M462.53,204.68l-65.69,65.04-3.85-3.85c4.84-15.34,7.45-31.68,7.45-48.62s-2.61-33.28-7.45-48.62c-1.39-4.45-2.98-8.82-4.75-13.1-8.19-19.82-20.22-37.67-35.15-52.6l-8.02,8.02-.7.71-52.8,52.79-52.8,52.8-114.32-114.32c-14.93,14.93-26.96,32.78-35.15,52.6-1.77,4.28-3.36,8.65-4.75,13.1-4.84,15.34-7.45,31.68-7.45,48.62s2.61,33.28,7.45,48.62l-3.85,3.86L15.01,204.68c.05-.94.11-1.87.17-2.81,1.97-28.94,9.42-56.37,21.34-81.27,4.3-8.98,9.19-17.64,14.61-25.91C80.83,50.51,120.28,26.45,135.63,18.25c.22-.13.45-.25.68-.35.59-.32,1.2-.63,1.8-.94,1.12-.55,2.24-1.11,3.37-1.66.08-.04.17-.08.25-.12.07-.03.14-.06.21-.1.03,0,.06-.03.09-.04.03-.01.06-.03.09-.04l43.86,43.86,52.79,52.79,48.62-48.62,4.18-4.17,43.85-43.86s.06.03.09.04c.03.01.06.03.09.04.07.04.14.07.21.1.08.04.17.08.25.12,1.13.55,2.25,1.11,3.37,1.66.6.31,1.21.62,1.8.94.23.1.46.22.68.35,15.4,8.23,55.07,32.43,84.8,76.9,5.31,8.13,10.09,16.64,14.31,25.45,11.92,24.9,19.37,52.33,21.34,81.27.06.94.12,1.87.17,2.81Z"/><path class="cls-1" d="M371.84,217.1c0,12.1-1.61,23.82-4.64,34.96-.26.98-.54,1.95-.83,2.92-6.06,20.45-17.46,38.92-32.54,54.01l-1.59,1.59-10.84,10.83-28,28-7.89,7.91-46.74,46.73-46.73-46.73-35.91-35.91-10.83-10.83-1.57-1.57c-15.09-15.09-26.51-33.57-32.57-54.03-.29-.97-.56-1.94-.83-2.92-3.03-11.14-4.64-22.86-4.64-34.96s1.61-23.82,4.64-34.96l34.96,34.96,93.48,93.48,93.47-93.48,34.96-34.96c3.03,11.14,4.64,22.86,4.64,34.96Z"/></g></svg>